<svg width="32" height="32" viewBox="0 0 32 32" fill="none" xmlns="http://www.w3.org/2000/svg">
<path d="M0 16C0 7.16344 7.16344 0 16 0V0C24.8366 0 32 7.16344 32 16V16C32 24.8366 24.8366 32 16 32V32C7.16344 32 0 24.8366 0 16V16Z" fill="#FDFDF1"/>
<path d="M8.77734 23C7.89844 23 7.13672 22.834 6.49219 22.502C5.84766 22.1634 5.34635 21.7109 4.98828 21.1445C4.63672 20.5781 4.46094 19.9564 4.46094 19.2793V13.3418C4.46094 12.6582 4.63672 12.0365 4.98828 11.4766C5.34635 10.9102 5.84766 10.4609 6.49219 10.1289C7.13672 9.79036 7.89844 9.62109 8.77734 9.62109H11.7852C12.6641 9.62109 13.4258 9.79036 14.0703 10.1289C14.7214 10.4609 15.2227 10.9102 15.5742 11.4766C15.9258 12.0365 16.1016 12.6582 16.1016 13.3418V19.2793C16.1016 19.9564 15.9258 20.5781 15.5742 21.1445C15.2227 21.7109 14.7214 22.1634 14.0703 22.502C13.4258 22.834 12.6641 23 11.7852 23H8.77734ZM13.2793 18.7617L14.1191 18.0391L10.8867 14.3574L14.2461 11.0371L13.543 10.2168L9.51953 14.2012V10.5H8.48438V18.5762H9.51953V15.5195L10.0859 15.0215L13.2793 18.7617ZM20.3398 23C19.4609 23 18.6992 22.834 18.0547 22.502C17.4102 22.1634 16.9089 21.7109 16.5508 21.1445C16.1992 20.5781 16.0234 19.9564 16.0234 19.2793V13.3418C16.0234 12.6582 16.1992 12.0365 16.5508 11.4766C16.9089 10.9102 17.4102 10.4609 18.0547 10.1289C18.6992 9.79036 19.4609 9.62109 20.3398 9.62109H23.3477C24.2266 9.62109 24.9883 9.79036 25.6328 10.1289C26.2839 10.4609 26.7852 10.9102 27.1367 11.4766C27.4883 12.0365 27.6641 12.6582 27.6641 13.3418V19.2793C27.6641 19.9564 27.4883 20.5781 27.1367 21.1445C26.7852 21.7109 26.2839 22.1634 25.6328 22.502C24.9883 22.834 24.2266 23 23.3477 23H20.3398ZM20.2227 18.6152L20.8672 18.459L21.4629 17.8633L22.1074 13.5566L22.7422 17.8633L23.3477 18.459L23.9824 18.6152L24.627 18.459L25.2227 17.8633L26.0039 10.6953L24.8809 10.5L24.2266 17.502L23.9629 17.5605L23.748 17.4824L22.5859 10.8223H21.6191L20.4668 17.4824L20.2422 17.5605L19.9883 17.502L19.3242 10.5L18.2012 10.6953L18.9824 17.8633L19.5879 18.459L20.2227 18.6152Z" fill="#2B323F"/>
</svg>
